# xmcd
#
# Track frame offsets: 
#        150
#        16847
#        33089
#        47984
#        64822
#        80083
#        95170
#        111988
#        126709
#        143005
#        156725
#        173396
#        188303
#
# Disc length: 2733 seconds
#
# Revision: 2
# Processed by: cddbd v1.5.2PL0 Copyright (c) Steve Scherf et al.
# Submitted via: ExactAudioCopyFreeDBPlugin 1.0
#
DISCID=b10aab0d
DTITLE=Jason Derülo - Jason Derülo
DYEAR=2010
DGENRE=R&B
TTITLE0=Whatcha Say
TTITLE1=Ridin' Solo
TTITLE2=In My Head
TTITLE3=The Sky's The Limit
TTITLE4=What If
TTITLE5=Love Hangover
TTITLE6=Encore
TTITLE7=Fallen
TTITLE8=Blind
TTITLE9=Strobelight
TTITLE10=Whatcha Say (Acoustic Version)
TTITLE11=In My Head (Rhythm Version)
TTITLE12=Whatcha Say Feat. Fanny J (French Version)
EXTD=
EXTT0=
EXTT1=
EXTT2=
EXTT3=
EXTT4=
EXTT5=
EXTT6=
EXTT7=
EXTT8=
EXTT9=
EXTT10=
EXTT11=
EXTT12=
PLAYORDER=
